<svg width="48" height="48" viewBox="0 0 48 48" fill="none" xmlns="http://www.w3.org/2000/svg">
<path d="M35 11.25C34.1467 11.2503 33.2981 11.3758 32.4813 11.6225C32.4875 11.4975 32.5 11.3763 32.5 11.25C32.4988 9.4342 31.8387 7.68052 30.6422 6.31464C29.4458 4.94877 27.7943 4.06352 25.9944 3.82329C24.1946 3.58305 22.3687 4.00417 20.8559 5.00842C19.3431 6.01268 18.2461 7.53182 17.7688 9.28375C16.8881 8.93162 15.9484 8.75047 15 8.75C14.0151 8.75 13.0398 8.94399 12.1299 9.3209C11.2199 9.69781 10.3931 10.2503 9.6967 10.9467C9.00026 11.6431 8.44781 12.4699 8.0709 13.3799C7.69399 14.2898 7.5 15.2651 7.5 16.25C7.5 17.2349 7.69399 18.2102 8.0709 19.1201C8.44781 20.0301 9.00026 20.8569 9.6967 21.5533C10.3931 22.2497 11.2199 22.8022 12.1299 23.1791C13.0398 23.556 14.0151 23.75 15 23.75C16.6457 23.7489 18.2454 23.2064 19.5522 22.2061C20.8591 21.2058 21.8005 19.8033 22.2312 18.215C23.1118 18.5675 24.0515 18.7491 25 18.75C25.4688 18.75 25.925 18.7012 26.37 18.62C26.2932 19.0761 26.253 19.5375 26.25 20C26.25 24.8313 30.1687 28.75 35 28.75C39.8313 28.75 43.75 24.8313 43.75 20C43.75 17.6794 42.8281 15.4538 41.1872 13.8128C39.5462 12.1719 37.3206 11.25 35 11.25Z" fill="#EED168"/>
<path d="M40 28.75C39.4331 28.7584 38.87 28.8442 38.3263 29.005C38.5963 28.3475 38.75 27.63 38.75 26.875C38.75 25.3832 38.1574 23.9524 37.1025 22.8975C36.0476 21.8426 34.6168 21.25 33.125 21.25C31.9039 21.2535 30.7177 21.658 29.7488 22.4012C29.3096 20.6451 28.2963 19.0859 26.8698 17.9715C25.4433 16.857 23.6853 16.2511 21.875 16.25C20.1905 16.2509 18.548 16.7756 17.1749 17.7514C15.8018 18.7271 14.7661 20.1058 14.2113 21.6963C12.8363 21.2711 11.3858 21.1478 9.95875 21.3347C8.53175 21.5216 7.1619 22.0143 5.94278 22.7791C4.72366 23.544 3.684 24.563 2.89482 25.7665C2.10564 26.97 1.58553 28.3297 1.37004 29.7527C1.15454 31.1756 1.24873 32.6283 1.64617 34.0116C2.04361 35.3948 2.73494 36.6759 3.67292 37.7675C4.61091 38.859 5.77345 39.7352 7.08113 40.3362C8.38881 40.9373 9.81081 41.2489 11.25 41.25H40C41.6576 41.25 43.2473 40.5915 44.4194 39.4194C45.5915 38.2473 46.25 36.6576 46.25 35C46.25 33.3424 45.5915 31.7527 44.4194 30.5806C43.2473 29.4085 41.6576 28.75 40 28.75Z" fill="#6885EE"/>
</svg>
